<svg width="20" height="23" viewBox="0 0 20 23" fill="none" xmlns="http://www.w3.org/2000/svg">
<path d="M8.77818 4.82843C9.16871 4.4379 9.16871 3.80474 8.77818 3.41421L5.94976 0.585787C5.89154 0.527574 5.83064 0.4737 5.76743 0.424164C5.08864 -0.107845 4.14525 -0.139399 3.43507 0.329505C3.32417 0.402729 3.21895 0.488155 3.12132 0.585788L0.292893 3.41422C-0.0976311 3.80474 -0.0976311 4.4379 0.292893 4.82843C0.683417 5.21895 1.31658 5.21895 1.70711 4.82843L3.58582 2.94972V17.1716C3.58582 17.7239 4.03353 18.1716 4.58582 18.1716C5.1381 18.1716 5.58582 17.7239 5.58582 17.1716V3.05027L7.36397 4.82843C7.75449 5.21895 8.38766 5.21895 8.77818 4.82843Z" fill="#A4A4A9"/>
<path d="M10.2929 17.5147C9.90237 17.9053 9.90237 18.5384 10.2929 18.9289L13.1213 21.7574C13.219 21.855 13.3242 21.9404 13.4351 22.0137C14.2114 22.5262 15.2663 22.4408 15.9497 21.7574L18.7782 18.9289C19.1687 18.5384 19.1687 17.9053 18.7782 17.5147C18.3877 17.1242 17.7545 17.1242 17.364 17.5147L15.5858 19.2929L15.5858 5.17158C15.5858 4.61929 15.1381 4.17158 14.5858 4.17158C14.0335 4.17158 13.5858 4.61929 13.5858 5.17158L13.5858 19.3934L11.7071 17.5147C11.3166 17.1242 10.6834 17.1242 10.2929 17.5147Z" fill="#A4A4A9"/>
</svg>
