<svg width="30" height="22" viewBox="0 0 30 22" fill="none" xmlns="http://www.w3.org/2000/svg">
<path d="M24.8186 1.99211C23.0127 1.1635 21.0762 0.55302 19.0515 0.203371C19.0146 0.196623 18.9778 0.213487 18.9588 0.247215C18.7097 0.690178 18.4338 1.26806 18.2407 1.72227C16.0629 1.39624 13.8963 1.39624 11.7632 1.72227C11.57 1.25796 11.2841 0.690178 11.0339 0.247215C11.0149 0.214612 10.9781 0.197748 10.9412 0.203371C8.91759 0.551903 6.98107 1.16239 5.17408 1.99211C5.15843 1.99886 5.14503 2.01011 5.13613 2.02472C1.46295 7.51237 0.456713 12.8651 0.95034 18.1515C0.952573 18.1774 0.967091 18.2021 0.987194 18.2179C3.41065 19.9976 5.75818 21.078 8.06212 21.7942C8.099 21.8055 8.13806 21.792 8.16153 21.7616C8.70653 21.0174 9.19234 20.2326 9.60888 19.4073C9.63347 19.359 9.61 19.3017 9.55976 19.2826C8.78917 18.9902 8.05542 18.6338 7.3496 18.2291C7.29377 18.1965 7.2893 18.1167 7.34066 18.0784C7.48919 17.9671 7.63776 17.8513 7.77959 17.7344C7.80525 17.713 7.841 17.7085 7.87117 17.722C12.5081 19.8391 17.5281 19.8391 22.1103 17.722C22.1405 17.7074 22.1763 17.7119 22.2031 17.7333C22.3449 17.8502 22.4934 17.9671 22.6431 18.0784C22.6945 18.1167 22.6911 18.1965 22.6353 18.2291C21.9295 18.6417 21.1957 18.9902 20.424 19.2814C20.3738 19.3006 20.3514 19.359 20.376 19.4073C20.8015 20.2314 21.2873 21.0162 21.8222 21.7605C21.8446 21.792 21.8848 21.8055 21.9216 21.7942C24.2367 21.078 26.5843 19.9976 29.0077 18.2179C29.0289 18.2021 29.0424 18.1785 29.0446 18.1527C29.6354 12.041 28.0551 6.73212 24.8554 2.02583C24.8476 2.01011 24.8343 1.99886 24.8186 1.99211ZM10.3013 14.9327C8.9053 14.9327 7.75501 13.651 7.75501 12.077C7.75501 10.503 8.88299 9.2213 10.3013 9.2213C11.7308 9.2213 12.87 10.5142 12.8476 12.077C12.8476 13.651 11.7196 14.9327 10.3013 14.9327ZM19.7159 14.9327C18.3199 14.9327 17.1697 13.651 17.1697 12.077C17.1697 10.503 18.2976 9.2213 19.7159 9.2213C21.1455 9.2213 22.2846 10.5142 22.2623 12.077C22.2623 13.651 21.1455 14.9327 19.7159 14.9327Z" fill="#D9D9D9"/>
</svg>
