<svg width="26" height="24" viewBox="0 0 26 24" fill="none" xmlns="http://www.w3.org/2000/svg">
<path fill-rule="evenodd" clip-rule="evenodd" d="M18.8991 22.831C19.2786 22.6793 19.6117 22.5268 19.8984 22.3828C20.4674 23.3505 21.52 24 22.7245 24C24.5335 24 26 22.5348 26 20.7273V14.1818C26 12.3743 24.5335 10.9091 22.7245 10.9091C21.1938 10.9091 19.9084 11.9581 19.549 13.3759C19.2371 13.4851 18.9223 13.5872 18.6031 13.6783C17.6794 13.942 16.5668 14.1818 15.6275 14.1818C14.2359 14.1818 11.7427 13.6749 10.2997 13.3489C9.20569 13.1016 8.08193 13.7132 7.72097 14.7952L7.28931 16.089C6.07911 15.6382 4.61389 14.9065 3.59132 14.3645C2.44751 13.7582 0.993614 14.2526 0.499812 15.4861L0.155432 16.3463C-0.181092 17.1869 0.0313189 18.1804 0.768504 18.7874C1.61168 19.4816 3.28037 20.7686 5.32532 21.8869C7.35046 22.9944 9.85785 23.9999 12.352 23.9999C15.2309 23.9999 17.4154 23.424 18.8991 22.831ZM21.6327 20.7273C21.6327 21.3298 22.1215 21.8182 22.7245 21.8182C23.3275 21.8182 23.8163 21.3298 23.8163 20.7273V14.1818C23.8163 13.5793 23.3275 13.0909 22.7245 13.0909C22.1215 13.0909 21.6327 13.5793 21.6327 14.1818V20.7273ZM15.6275 16.3636C13.9477 16.3636 11.2093 15.7913 9.81806 15.4769C9.81806 15.4769 9.453 16.503 9.39958 16.6631L13.6038 17.7574C14.1081 17.8887 14.396 18.4188 14.2312 18.9128C14.0919 19.3302 13.6723 19.5858 13.238 19.5126C11.9047 19.2879 9.13367 18.7963 7.72097 18.3671C5.8184 17.789 3.84751 16.9701 2.568 16.2919C2.568 16.2919 2.23009 17.0388 2.19253 17.1326C2.98812 17.7852 4.52127 18.9599 6.37377 19.973C8.27388 21.0121 10.397 21.8181 12.352 21.8181C16.1985 21.8181 18.5501 20.6788 19.449 20.1436V15.7043C18.2131 16.0733 16.923 16.3636 15.6275 16.3636Z" fill="#DAA70C"/>
<path d="M12.8979 0C12.2949 0 11.8061 0.488417 11.8061 1.09091V7.18434L10.3945 5.77395C9.9681 5.34808 9.27677 5.34808 8.85041 5.77395C8.42397 6.20008 8.42397 6.89069 8.85041 7.31683L12.125 10.5887C12.551 11.0144 13.2417 11.0147 13.6683 10.5895L16.9432 7.32402C17.3696 6.89815 17.3696 6.20728 16.9432 5.78141C16.5168 5.35527 15.8255 5.35527 15.3991 5.78141L13.9898 7.18946V1.09091C13.9898 0.488417 13.5009 0 12.8979 0Z" fill="#DAA70C"/>
</svg>
