<svg width="24" height="24" viewBox="0 0 24 24" fill="none" xmlns="http://www.w3.org/2000/svg">
<path fill-rule="evenodd" clip-rule="evenodd" d="M12 24C18.6274 24 24 18.6274 24 12C24 5.37258 18.6274 0 12 0C5.37258 0 0 5.37258 0 12C0 18.6274 5.37258 24 12 24ZM12 21.8107C6.58168 21.8107 2.18927 17.4183 2.18927 12C2.18927 6.95042 6.00418 2.79187 10.9091 2.24924V11.5481C10.9091 12.1268 11.139 12.6817 11.5481 13.0909L18.1231 19.6659C16.4448 21.0081 14.3161 21.8107 12 21.8107ZM19.6659 18.1231L15.0061 13.4634C14.8687 13.3259 14.966 13.0909 15.1604 13.0909H21.7508C21.5415 14.9825 20.7944 16.712 19.6659 18.1231ZM21.7508 10.9091H13.6364C13.3351 10.9091 13.0909 10.6649 13.0909 10.3636V2.24924C17.6376 2.75224 21.2478 6.36236 21.7508 10.9091Z" fill="#DAA70C"/>
</svg>
