<svg width="8" height="8" viewBox="0 0 8 8" fill="none" xmlns="http://www.w3.org/2000/svg">
<path d="M8 4C8 6.20914 6.20914 8 4 8C1.79086 8 0 6.20914 0 4C0 1.79086 1.79086 0 4 0C6.20914 0 8 1.79086 8 4ZM0.729756 4C0.729756 5.80611 2.19389 7.27024 4 7.27024C5.80611 7.27024 7.27024 5.80611 7.27024 4C7.27024 2.19389 5.80611 0.729756 4 0.729756C2.19389 0.729756 0.729756 2.19389 0.729756 4Z" fill="#A4A4A9"/>
<path d="M4.54545 6.18182C4.54545 6.48306 4.30125 6.72727 4 6.72727C3.69875 6.72727 3.45455 6.48306 3.45455 6.18182C3.45455 5.88057 3.69875 5.63636 4 5.63636C4.30125 5.63636 4.54545 5.88057 4.54545 6.18182Z" fill="#A4A4A9"/>
<path d="M3.63636 4V4.72727C3.63636 4.72727 3.63636 5.09091 4 5.09091C4.36363 5.09091 4.36363 4.72727 4.36363 4.72727V4C4.36363 4 4.53789 3.95013 4.6047 3.92303C4.6047 3.92303 4.72616 3.87967 4.81118 3.81441C4.8962 3.74915 4.97312 3.67165 5.04195 3.58192C5.11483 3.49219 5.17151 3.38818 5.212 3.2699C5.25248 3.15161 5.27273 3.05593 5.27273 2.90909C5.27273 2.66437 5.21807 2.41336 5.10875 2.22982C5.00349 2.0422 4.85369 1.8974 4.65935 1.79543C4.46502 1.68939 4.23829 1.63636 3.97918 1.63636C3.81723 1.63636 3.6735 1.65676 3.54799 1.69754C3.42248 1.73425 3.31115 1.78524 3.21398 1.8505C3.12086 1.91168 3.04191 1.98102 2.97713 2.05851C2.9164 2.13193 2.86782 2.20331 2.83138 2.27265C2.79494 2.34198 2.77065 2.40316 2.7585 2.45619C2.73421 2.53368 2.72409 2.5969 2.72814 2.64585C2.73624 2.69479 2.76053 2.73558 2.80101 2.76821C2.8415 2.80084 2.90426 2.83551 2.98928 2.87222C3.07835 2.90077 3.14718 2.91097 3.19576 2.90281C3.24839 2.89465 3.2909 2.87018 3.32329 2.82939C3.32329 2.82939 3.49594 2.58389 3.54452 2.53494C3.59716 2.48192 3.66193 2.44113 3.73886 2.41258C3.81578 2.37995 3.90283 2.36364 4 2.36364C4.21053 2.36364 4.3664 2.41462 4.46762 2.51659C4.57288 2.61448 4.6047 2.69683 4.6047 2.88445C4.6047 3.0109 4.58243 3.11286 4.53789 3.19036C4.49336 3.26786 4.43465 3.33108 4.36178 3.38002C4.36178 3.38002 4.26279 3.41784 4.18182 3.45455C4.10489 3.48718 3.96368 3.54113 3.89081 3.58192C3.82198 3.61863 3.78339 3.65721 3.73886 3.71431C3.69432 3.77141 3.63636 3.90211 3.63636 4Z" fill="#A4A4A9"/>
</svg>
