<svg width="19" height="19" viewBox="0 0 19 19" fill="none" xmlns="http://www.w3.org/2000/svg">
<path d="M2.93488 5.167H5C5.46024 5.167 5.83333 5.54009 5.83333 6.00033C5.83333 6.46057 5.46024 6.83366 5 6.83366H1.66667C0.746192 6.83366 0 6.08747 0 5.167V1.83366C0 1.37343 0.373096 1.00033 0.833333 1.00033C1.29357 1.00033 1.66667 1.37343 1.66667 1.83366V4.06318C2.61842 2.70881 3.92382 1.63124 5.44985 0.954341C7.32285 0.123533 9.42021 -0.0557909 11.4071 0.444997C13.3939 0.945786 15.1557 2.09781 16.4111 3.71714C17.4958 5.11616 18.1484 6.79429 18.2995 8.54631C18.339 9.00485 17.9564 9.37687 17.4962 9.3746C17.036 9.37234 16.6658 8.99626 16.617 8.53862C16.47 7.16145 15.9434 5.84601 15.0881 4.74287C14.062 3.41926 12.6219 2.47763 10.9979 2.0683C9.37391 1.65897 7.65958 1.80554 6.12864 2.48462C4.85269 3.05059 3.76544 3.95925 2.98329 5.10224C2.96798 5.12461 2.95182 5.14621 2.93488 5.167Z" fill="#A4A4A9"/>
<path d="M16.6667 14.6042C15.7149 15.9585 14.4095 17.0361 12.8835 17.713C11.0105 18.5438 8.91312 18.7231 6.92627 18.2223C4.93942 17.7215 3.17763 16.5695 1.92219 14.9502C0.837551 13.5512 0.184887 11.873 0.0338659 10.121C-0.00565929 9.66248 0.376905 9.29046 0.837137 9.29272C1.29737 9.29498 1.66753 9.67107 1.71636 10.1287C1.86331 11.5059 2.38997 12.8213 3.24522 13.9245C4.27138 15.2481 5.71142 16.1897 7.33542 16.599C8.95943 17.0084 10.6738 16.8618 12.2047 16.1827C13.4806 15.6167 14.5679 14.7081 15.35 13.5651C15.3654 13.5427 15.3815 13.5211 15.3985 13.5003H13.3333C12.8731 13.5003 12.5 13.1272 12.5 12.667C12.5 12.2068 12.8731 11.8337 13.3333 11.8337H16.6667C17.5871 11.8337 18.3333 12.5799 18.3333 13.5003V16.8337C18.3333 17.2939 17.9602 17.667 17.5 17.667C17.0398 17.667 16.6667 17.2939 16.6667 16.8337V14.6042Z" fill="#A4A4A9"/>
</svg>
