<svg width="19" height="19" viewBox="0 0 19 19" fill="none" xmlns="http://www.w3.org/2000/svg">
<path fill-rule="evenodd" clip-rule="evenodd" d="M2.16615 4.35344C1.96833 3.18361 3.06668 2.20531 4.22755 2.51736L5.10647 2.75363C5.80404 2.94114 6.54421 2.6591 6.93239 2.05786L7.77482 0.753066C8.42311 -0.251021 9.91023 -0.251023 10.5585 0.753064L11.4009 2.05785C11.7891 2.6591 12.5293 2.94114 13.2269 2.75363L14.1058 2.51736C15.2666 2.20531 16.365 3.18361 16.1672 4.35344L15.9504 5.63554C15.839 6.29446 16.1477 6.9535 16.7289 7.29719L17.5324 7.77234C18.6003 8.4039 18.6003 9.92943 17.5324 10.561L16.7289 11.0361C16.1477 11.3798 15.839 12.0389 15.9504 12.6978L16.1672 13.9799C16.365 15.1497 15.2666 16.128 14.1058 15.816L13.2269 15.5797C12.5293 15.3922 11.7891 15.6742 11.4009 16.2755L10.5585 17.5803C9.91023 18.5844 8.42311 18.5844 7.77482 17.5803L6.93239 16.2755C6.54421 15.6742 5.80404 15.3922 5.10647 15.5797L4.22755 15.816C3.06668 16.128 1.96833 15.1497 2.16615 13.9799L2.38295 12.6978C2.49437 12.0389 2.18559 11.3798 1.60443 11.0361L0.800967 10.561C-0.26699 9.92943 -0.266989 8.4039 0.800968 7.77234L1.60443 7.29719C2.18559 6.9535 2.49437 6.29446 2.38295 5.63554L2.16615 4.35344ZM6.69202 4.28851H4.21737V6.72759L1.74273 9.16667L4.21737 11.6057V14.0448H6.69202L9.16667 16.4839L11.6413 14.0448H14.116V11.6057L16.5906 9.16667L14.116 6.72759V4.28851H11.6413L9.16667 1.84943L6.69202 4.28851Z" fill="#A4A4A9"/>
<path d="M12.8763 9.16667C12.8763 11.1873 11.2143 12.8253 9.16428 12.8253C7.11422 12.8253 5.45231 11.1873 5.45231 9.16667C5.45231 7.14607 7.11422 5.50805 9.16428 5.50805C11.2143 5.50805 12.8763 7.14607 12.8763 9.16667ZM7.09969 9.16667C7.09969 10.2905 8.02404 11.2016 9.16428 11.2016C10.3045 11.2016 11.2289 10.2905 11.2289 9.16667C11.2289 8.04281 10.3045 7.13175 9.16428 7.13175C8.02404 7.13175 7.09969 8.04281 7.09969 9.16667Z" fill="#A4A4A9"/>
</svg>
