<svg width="30" height="30" viewBox="0 0 30 30" fill="none" xmlns="http://www.w3.org/2000/svg">
<path fill-rule="evenodd" clip-rule="evenodd" d="M29.1666 15C29.1666 22.8241 22.824 29.1667 14.9999 29.1667C7.17588 29.1667 0.833252 22.8241 0.833252 15C0.833252 7.17601 7.17588 0.833374 14.9999 0.833374C22.824 0.833374 29.1666 7.17601 29.1666 15ZM15.5076 11.2918C14.1296 11.865 11.3757 13.0512 7.24588 14.8505C6.57525 15.1172 6.22395 15.3781 6.19197 15.6332C6.13792 16.0643 6.67782 16.2341 7.41302 16.4653C7.51303 16.4967 7.61664 16.5293 7.72287 16.5638C8.4462 16.799 9.4192 17.074 9.92502 17.085C10.3839 17.0949 10.896 16.9057 11.4613 16.5175C15.32 13.9128 17.3119 12.5962 17.4369 12.5678C17.5251 12.5478 17.6474 12.5226 17.7302 12.5963C17.8131 12.6699 17.8049 12.8093 17.7962 12.8467C17.7427 13.0747 15.6234 15.045 14.5266 16.0647C14.1847 16.3825 13.9422 16.608 13.8926 16.6595C13.7816 16.7748 13.6684 16.884 13.5596 16.9888C12.8876 17.6366 12.3837 18.1224 13.5875 18.9157C14.166 19.2969 14.6289 19.6122 15.0907 19.9267C15.5951 20.2702 16.0981 20.6127 16.749 21.0394C16.9148 21.1481 17.0732 21.261 17.2275 21.371C17.8144 21.7894 18.3417 22.1654 18.9932 22.1054C19.3718 22.0706 19.7628 21.7146 19.9614 20.653C20.4307 18.1441 21.3532 12.708 21.5664 10.4679C21.5851 10.2716 21.5616 10.0204 21.5427 9.91018C21.5238 9.79992 21.4844 9.64282 21.3411 9.52653C21.1714 9.3888 20.9093 9.35975 20.7921 9.36182C20.2593 9.37121 19.4418 9.65546 15.5076 11.2918Z" fill="#D9D9D9"/>
</svg>
