<svg width="29" height="23" viewBox="0 0 29 23" fill="none" xmlns="http://www.w3.org/2000/svg">
<path d="M26.0311 5.72579C26.0488 5.97533 26.0488 6.22486 26.0488 6.47669C26.0488 14.1502 20.0638 23 9.12001 23V22.9954C5.88718 23 2.72151 22.0962 0 20.392C0.470079 20.4472 0.942515 20.4748 1.41613 20.4759C4.09523 20.4782 6.69775 19.6008 8.80544 17.9852C6.25948 17.938 4.02689 16.3178 3.24696 13.9524C4.13882 14.1203 5.05777 14.0858 5.93313 13.8523C3.15742 13.305 1.16047 10.9246 1.16047 8.16019C1.16047 8.13489 1.16047 8.11074 1.16047 8.08659C1.98753 8.53621 2.91355 8.78575 3.86078 8.81335C1.24648 7.108 0.440626 3.71342 2.01934 1.05938C5.0401 4.68741 9.49701 6.89297 14.2815 7.1264C13.802 5.10943 14.457 2.99586 16.0027 1.578C18.3991 -0.620659 22.1679 -0.507966 24.4206 1.82984C25.753 1.5734 27.0301 1.09618 28.1989 0.420025C27.7547 1.76429 26.8251 2.90617 25.5834 3.63177C26.7627 3.49608 27.9149 3.1879 29 2.71758C28.2012 3.88591 27.1951 4.90359 26.0311 5.72579Z" fill="#D9D9D9"/>
</svg>
